<?xml version="1.0" standalone="no"?><!DOCTYPE svg PUBLIC "-//W3C//DTD SVG 1.1//EN" "http://www.w3.org/Graphics/SVG/1.1/DTD/svg11.dtd"><svg t="1542681128893" class="icon" style="" viewBox="0 0 1024 1024" version="1.1" xmlns="http://www.w3.org/2000/svg" p-id="5097" xmlns:xlink="http://www.w3.org/1999/xlink" width="128" height="128"><defs><style type="text/css"></style></defs><path d="M325.308823 8.18492h-10.741895l-20.4598 10.740895-10.739895 10.2299L278.252283 44.500565l-5.11495 15.855846v10.2299l5.11495 10.2299 10.2299 10.739895 10.739895 5.11495 10.2299 5.11495h31.200695l5.11495-5.11495 10.2299-10.2299 5.625946-5.625945 5.11495-10.2299 5.11495-15.34385-5.11495-20.970796-10.740896-10.2299-10.2299-5.11495-10.2299-10.740895z m638.330766 0h-10.2299l-20.969795 10.740895-10.2299 10.2299-5.11495 15.34485-5.11495 15.855846v10.2299l5.11495 10.2299 10.2299 10.739895 10.2299 5.11495 10.739895 5.11495h31.201696l5.11395-5.11495 10.2299-10.2299 5.11495-5.625945 5.11495-10.2299 5.625945-15.34385-5.625945-20.970796-10.2299-10.2299-10.2299-5.11495-10.2299-10.740895zM709.432072 268.018383h-10.739895l-20.4598 10.2299-10.2299 10.2299-5.625946 15.855845-5.11495 15.34385v10.741895l5.11495 10.2299 10.739896 10.2299 10.2299 5.113951 10.2299 5.625945h31.200695l5.11495-5.625945 10.740895-10.229901 5.11495-5.11495 5.11495-10.2299 5.11495-15.855845-5.11495-20.4598-10.2299-10.739895-10.739895-5.11495-10.2299-10.2299z m-643.956711 0H55.244461L34.274665 278.248283l-10.2299 10.2299-5.11495 15.855845L13.30487 319.677878v10.741895l5.625945 10.2299 10.2299 10.2299 10.2299 5.113951 10.2299 5.625945h31.199696l5.626945-5.625945 10.2299-10.229901 5.11395-5.11495 5.11495-10.2299 5.11495-15.855845-5.11495-20.4598-10.2299-10.739895-10.2299-5.11495-10.739895-10.2299z m259.833462 389.239198h-10.741895l-20.4598 10.740896-10.739895 10.2299-5.11495 15.34385-5.11495 15.856845v10.2299l5.11495 10.2299 10.2299 10.739895 10.739895 5.11495 10.2299 5.11495h31.200695l5.11495-5.11495 10.2299-10.2299 5.625946-5.625945 5.11495-10.2299 5.11495-15.34385-5.11495-20.970795-10.740896-10.2299-10.2299-5.11495-10.2299-10.740896z m638.330766 0h-10.2299l-20.969795 10.740896-10.2299 10.2299-5.11495 15.34385-5.11495 15.856845v10.2299l5.11495 10.2299 10.2299 10.739895 10.2299 5.11495 10.739895 5.11495h31.201696l5.11395-5.11495 10.2299-10.2299 5.11495-5.625945 5.11495-10.2299 5.625945-15.34385-5.625945-20.970795-10.2299-10.2299-10.2299-5.11495-10.2299-10.740896zM704.318122 911.976094h-10.741895l-20.4598 10.2299-10.739896 10.2299-5.11495 15.855845-5.11495 15.34385v10.741896l5.11495 10.2299 10.740896 10.2299 10.2299 5.11395 10.2299 5.11495h31.199695l5.11495-5.11495 10.740895-10.2299 5.11495-5.11495 5.11495-10.2299 5.11495-15.855846-5.11495-20.969795-10.2299-10.2299-10.739895-5.11495-10.2299-10.2299z m-633.728811 5.11495h-10.2299l-20.969796 10.2299-10.2299 10.2299-5.11495 15.855845-5.11495 15.343851V979.491435l5.11495 10.2299 10.2299 10.2299 10.2299 5.11495 10.739896 5.625945h31.201695l5.11395-5.625945 10.2299-10.2299 5.11495-5.11495 5.11495-10.2299 5.11495-15.855846-5.11495-20.4598-10.2299-10.739895-10.2299-5.11495-10.739895-10.2299z" fill="#8BD1A9" p-id="5098"></path><path d="M958.013644 762.623553c30.6897 0 56.263451-25.57475 56.263451-57.286441 0-26.085745-17.38983-48.07953-41.94159-55.752456l-5.626946-1.533985V114.572881l5.626946-1.533985c24.55076-5.625945 41.94159-29.154715 41.94159-55.751455C1014.277095 25.57475 989.21434 0.001 958.013644 0.001c-25.57375 0-47.05654 17.38983-54.729465 42.96458l-1.533985 5.625945H376.968319l-1.533985-5.625945C369.296394 17.902825 346.790613 0.511995 320.704868 0.511995c-30.6887 0-56.262451 25.57475-56.26245 57.286441 0 9.717905 3.06797 19.947805 8.18292 28.131725l3.579965 5.11495L98.722036 271.598348l-5.11495-3.579965c-8.18292-5.625945-17.901825-8.18392-27.61973-8.18392-30.6897 0-56.263451 25.57475-56.263451 57.28644 0 26.085745 17.38983 48.07953 41.94159 55.751456l5.626946 1.534985v535.52277l-5.626946 1.02299c-24.55076 5.625945-41.94159 29.154715-41.94159 55.751456 0 31.71269 25.062755 57.286441 56.263451 57.28644 25.57375 0 47.05654-17.38983 54.729465-42.96458l1.533985-5.625945h526.827855l1.533985 5.625945c6.13794 25.062755 28.64372 42.453585 54.729466 42.453585 30.6887 0 56.262451-25.57475 56.26245-57.28644 0-10.2299-2.556975-19.947805-8.18292-28.131726l-3.579965-5.11495 175.949282-182.599217 5.11495 3.579965c8.18392 5.625945 17.38983 8.694915 27.108735 8.694916z m0-745.742718c22.50478 0.509995 39.89561 18.41282 39.895611 39.894611s-17.901825 39.89561-39.384616 39.89561c-22.50478 0-39.89561-18.41282-39.89561-40.406605 0-20.4598 17.39083-38.361625 39.384615-39.384616z m-32.73468 85.417166l5.11495 3.579965c3.06897 2.04598 7.15993 3.06997 10.739895 4.603955 1.02399 0.510995 2.04698 0.510995 3.06997 1.02199l5.11495 1.534985v535.011775l-5.626945 1.533985c-20.4598 5.626945-35.291655 21.48279-40.9186 41.430596l-1.533985 5.625945H710.456062V373.895349l6.13694-1.533985c24.55176-5.626945 41.94159-29.154715 41.94159-55.752456 0-10.2299-3.06797-19.947805-8.18292-28.130725l-3.579965-5.11495 178.507257-181.065232z m-590.764231 547.79865l-5.625945-1.534985v-323.256843h318.142893l1.533985 5.625945c5.626945 19.947805 21.48279 35.80365 40.919601 41.429596l5.625945 1.534985v322.746848H376.968319l-1.533985-5.626945c-5.626945-19.43681-20.970795-35.292655-40.919601-40.919601z m26.085746 55.751456c0 21.993785-17.901825 39.89561-39.383616 39.89561-21.993785-0.510995-39.89561-18.41282-39.89561-39.89561 0-21.993785 17.901825-39.89561 39.383615-39.89561 21.993785 0 39.89561 17.901825 39.895611 39.89561z m302.799042-389.239199c0-21.993785 17.901825-39.89561 39.383616-39.89561 21.993785 0.511995 39.89561 18.41382 39.89561 39.89561s-17.901825 39.89561-39.383615 39.895611c-21.993785 0-39.89561-17.901825-39.895611-39.895611zM320.704868 16.880835c21.993785 0 39.384615 18.41382 39.384616 39.895611s-17.901825 39.89561-39.384616 39.89561c-22.50478-0.510995-39.89561-18.41282-39.383615-40.406605-0.511995-20.4598 17.38983-38.361625 39.383615-39.384616m-33.245675 85.418166l5.11395 3.579965c4.09196 3.06997 8.18392 5.625945 13.29987 6.649935l22.50478 5.625945v-3.579965l5.625945-1.534985c20.4598-5.625945 35.292655-21.48279 40.919601-41.429595l1.533985-5.626945h526.827855l1.533985 5.625945c1.534985 5.626945 2.557975 9.718905 5.11495 13.809865l3.579965 5.11495L736.540807 271.598348l-5.11395-3.579965c-8.18392-5.625945-17.902825-8.18392-27.61973-8.18392-25.57475 0-47.05754 17.38983-54.729466 42.96458l-1.534985 5.626945H328.888788v-195.898087H312.521948v195.386092H121.737811l-1.02299-6.13794c-1.02299-4.602955-2.556975-9.20691-5.11495-13.29787l-3.06897-5.11495 174.928292-181.065232zM26.090745 316.607908c0-21.993785 17.901825-39.89561 39.384616-39.89561 22.50478 0.511995 39.89561 18.41382 39.89561 39.89561s-17.901825 39.89561-39.384615 39.895611c-22.50478 0-39.89561-17.901825-39.895611-39.895611z m39.384616 687.945282c-21.993785 0-39.89661-18.41282-39.384616-40.406605 0-21.993785 17.901825-39.89561 39.384616-39.895611 22.50478 0.510995 39.89561 18.41282 39.89561 39.895611 0 22.50478-17.39083 40.406605-39.89561 40.406605m46.544545-72.119296c-10.2299-15.34385-28.131725-20.4588-28.131725-20.4588-0.510995 0-1.533985-0.510995-2.04598-0.510995-1.02299-0.511995-2.04598-0.511995-3.06897-1.02299l-5.11495-1.534985V374.407344l5.626945-1.534985c20.4598-5.625945 35.291655-21.48179 40.9186-41.429596l1.533985-5.626945H312.521948v323.256843l-6.13694 1.534985c-24.55176 5.626945-41.94159 29.154715-41.94159 55.752456 0 9.717905 3.06797 19.947805 8.18292 28.131725l3.579965 5.11395L98.722036 919.648019m548.310645 36.82764H121.737811l-1.02299-6.13794c-1.02299-4.603955-2.556975-9.20691-5.11495-13.29887l-3.06897-5.11495L288.482183 751.370662l5.11395 3.579965c8.18392 5.625945 17.902825 8.18392 27.61973 8.183921 25.57475 0 47.05754-17.38983 54.729466-42.964581l1.534985-5.626945h318.141893v193.853107l-5.625945 1.533985c-20.4598 5.625945-35.292655 21.48279-40.919601 41.429595m54.729466 53.194481c-22.50478 0-39.89561-18.41282-39.895611-40.406606 0-21.993785 17.901825-39.89561 39.384616-39.89561 22.50478 0.510995 39.89561 18.41282 39.89561 39.89561 0 22.50478-17.901825 40.406605-39.384615 40.406606z m32.73468-84.906171l-5.11395-3.579965c-4.09196-3.06897-8.18392-5.625945-13.29987-7.15993l-5.625945-1.534985V713.520032H903.286179l1.533985 5.626945c1.534985 5.625945 2.557975 9.717905 5.11495 13.809865l3.579965 5.11495-176.973272 181.576227z m182.088222-213.799912c0-21.993785 17.901825-39.89561 39.384615-39.89561 22.50478 0.511995 39.89561 18.41382 39.895611 40.407605s-17.901825 39.89561-39.384616 39.89561c-22.50478-0.511995-39.89561-18.924815-39.89561-40.407605z" fill="#3EB370" p-id="5099"></path></svg>